<?xml version="1.0" standalone="no"?>
<!DOCTYPE svg PUBLIC "-//W3C//DTD SVG 20010904//EN"
 "http://www.w3.org/TR/2001/REC-SVG-20010904/DTD/svg10.dtd">
<svg version="1.0" xmlns="http://www.w3.org/2000/svg"
 width="703.000000pt" height="703.000000pt" viewBox="0 0 703.000000 703.000000"
 preserveAspectRatio="xMidYMid meet">
<metadata>
Created by potrace 1.14, written by Peter Selinger 2001-2017
</metadata>
<g transform="translate(0.000000,703.000000) scale(0.100000,-0.100000)"
fill="#000000" stroke="none">
<path d="M5305 6870 c-33 -5 -89 -16 -125 -24 -36 -9 -76 -19 -89 -22 -37 -8
-89 -31 -121 -54 -51 -37 -59 -130 -13 -166 54 -43 100 -53 296 -69 107 -8
241 -24 298 -36 253 -50 495 -163 651 -303 185 -166 291 -435 275 -696 -8
-131 -77 -331 -148 -430 -16 -22 -29 -44 -29 -50 0 -5 -4 -10 -10 -10 -5 0
-15 -11 -22 -24 -25 -46 -177 -197 -281 -279 -335 -261 -730 -437 -1217 -541
-308 -66 -831 -64 -1131 4 -172 39 -329 111 -441 202 -40 33 -95 77 -123 100
-118 95 -153 136 -161 184 -4 26 -2 61 4 79 5 19 11 84 12 147 2 135 6 186 15
230 30 134 122 170 315 122 52 -13 103 -28 112 -34 10 -5 23 -10 30 -10 20 0
201 -106 273 -160 39 -29 111 -89 160 -134 212 -192 232 -201 410 -200 113 1
140 4 208 28 138 47 222 117 247 205 29 105 4 195 -104 371 -78 128 -93 149
-186 266 -205 255 -218 270 -257 283 -24 8 -49 27 -67 52 -17 21 -33 39 -38
39 -4 0 -8 6 -8 13 0 13 80 77 95 77 10 0 76 50 118 89 45 43 48 72 11 145
-39 77 -85 146 -98 146 -6 0 -24 24 -39 53 -48 93 -104 185 -130 215 -14 15
-32 22 -55 22 -43 0 -190 -73 -282 -139 -36 -26 -83 -58 -105 -71 -22 -13 -78
-52 -125 -85 -47 -33 -110 -74 -140 -89 -30 -16 -79 -44 -108 -62 -29 -19 -54
-34 -57 -34 -2 0 -28 -11 -57 -24 -29 -13 -80 -32 -113 -41 -33 -10 -78 -23
-100 -31 -70 -23 -292 -55 -392 -55 -60 0 -121 6 -157 15 -32 9 -73 18 -90 21
-17 2 -58 9 -91 15 -123 23 -154 25 -325 24 -223 -2 -382 -25 -830 -124 -113
-25 -295 -50 -361 -50 l-46 0 -7 41 c-9 59 -50 132 -93 168 -53 44 -152 75
-211 66 -153 -22 -252 -136 -252 -288 0 -80 33 -150 92 -192 23 -16 80 -68
126 -114 63 -63 81 -86 70 -93 -15 -10 52 -76 152 -152 30 -22 57 -43 60 -46
8 -8 121 -92 155 -115 87 -60 230 -143 310 -181 50 -24 84 -43 78 -44 -7 0
-13 -5 -13 -11 0 -6 7 -8 17 -4 21 7 14 1 -42 -42 -101 -77 -319 -159 -485
-184 -217 -31 -207 -28 -240 -65 -16 -19 -30 -45 -30 -58 0 -25 136 -201 222
-287 90 -90 259 -193 394 -240 173 -60 328 -82 574 -83 l165 -1 3 -35 c2 -19
15 -49 28 -67 36 -47 143 -121 193 -132 23 -5 43 -11 44 -13 1 -1 10 -19 21
-38 89 -167 147 -287 156 -322 11 -43 20 -68 60 -168 13 -30 29 -75 36 -100 7
-25 22 -70 34 -100 11 -30 41 -113 65 -185 24 -71 67 -197 95 -278 27 -81 50
-152 50 -158 0 -6 6 -25 14 -42 8 -18 36 -99 63 -182 58 -180 59 -219 15 -405
-51 -216 -103 -414 -118 -447 -8 -17 -14 -37 -14 -45 0 -7 -16 -62 -36 -123
-41 -127 -58 -184 -107 -350 -20 -66 -47 -151 -62 -190 -33 -91 -55 -201 -55
-280 l0 -62 43 -17 c80 -30 157 -14 157 33 0 15 56 6 79 -13 21 -16 91 -113
91 -125 0 -6 11 -18 25 -27 32 -21 98 -11 142 22 78 59 227 317 507 879 284
570 328 693 341 947 9 181 26 249 73 291 27 25 61 29 136 17 199 -32 567 -40
726 -16 52 8 131 17 175 21 44 4 112 15 150 25 39 10 113 28 165 40 78 18 297
79 435 121 49 15 144 11 174 -7 34 -20 60 -69 105 -199 20 -55 56 -149 81
-210 25 -60 45 -113 45 -118 0 -4 20 -60 45 -125 26 -64 52 -133 60 -152 30
-78 59 -148 81 -198 13 -29 24 -57 24 -62 0 -6 4 -18 10 -28 5 -9 50 -102 100
-207 50 -104 95 -197 100 -205 5 -8 23 -40 40 -70 17 -31 54 -87 83 -125 l52
-70 101 0 100 0 55 -84 c74 -115 172 -215 226 -231 105 -32 224 76 208 188 -6
43 -34 133 -59 187 -7 17 -30 75 -50 130 -21 55 -68 181 -105 280 -38 99 -75
200 -84 225 -24 70 -78 223 -87 245 -40 101 -77 252 -73 295 3 19 27 103 54
185 84 252 119 434 124 655 5 241 -37 451 -125 615 -66 122 -218 331 -258 354
-15 9 -12 14 23 43 80 65 167 155 223 228 31 41 60 77 64 80 20 15 143 232
172 303 129 317 176 553 176 887 0 153 -28 374 -64 495 -73 252 -191 452 -374
638 -213 216 -494 349 -847 402 -70 11 -367 14 -430 5z"/>
</g>
</svg>
